<?xml version="1.0" encoding="UTF-8"?>
<!DOCTYPE svg PUBLIC "-//W3C//DTD SVG 1.1//EN" "http://www.w3.org/Graphics/SVG/1.1/DTD/svg11.dtd">
<!-- Creator: CorelDRAW -->
<svg xmlns="http://www.w3.org/2000/svg" xml:space="preserve" width="179.285mm" height="146.353mm" version="1.1" style="shape-rendering:geometricPrecision; text-rendering:geometricPrecision; image-rendering:optimizeQuality; fill-rule:evenodd; clip-rule:evenodd"
viewBox="0 0 2127.81 1736.96"
 xmlns:xlink="http://www.w3.org/1999/xlink"
 xmlns:xodm="http://www.corel.com/coreldraw/odm/2003">
 <defs>
  <style type="text/css">
   <![CDATA[
    .fil3 {fill:gray}
    .fil2 {fill:#999999}
    .fil0 {fill:#B3B3B3}
    .fil1 {fill:#E6E6E6}
    .fil4 {fill:white}
   ]]>
  </style>
 </defs>
 <g id="Capa_x0020_1">
  <metadata id="CorelCorpID_0Corel-Layer"/>
  <path class="fil0" d="M854.98 0l417.86 0c4.58,0 8.32,5.52 8.32,12.28l0 240.2c0,6.75 -3.75,12.28 -8.32,12.28l-417.86 0c-4.58,0 -8.32,-5.52 -8.32,-12.28l0 -240.2c0,-6.75 3.75,-12.28 8.32,-12.28zm47.76 69.3l322.34 0c2.18,0 3.97,2.63 3.97,5.85l0 114.45c0,3.22 -1.78,5.85 -3.97,5.85l-322.34 0c-2.18,0 -3.97,-2.63 -3.97,-5.85l0 -114.45c0,-3.22 1.78,-5.85 3.97,-5.85z"/>
  <rect class="fil1" x="59.73" y="187.19" width="2008.35" height="1549.77" rx="67.83" ry="71.86"/>
  <path class="fil2" d="M36.53 187.19l2054.75 0c20.09,0 36.53,14.89 36.53,33.08l0 647.25c0,18.19 -17.23,27.5 -36.53,33.08l-1027.72 297.06 -1027.03 -297.06c-19.3,-5.58 -36.53,-14.89 -36.53,-33.08l0 -647.25c0,-18.2 16.44,-33.08 36.53,-33.08z"/>
  <g id="_1635687071760">
   <rect class="fil3" x="805.88" y="1067.57" width="516.04" height="213.24" rx="17.43" ry="9.89"/>
   <rect class="fil4" x="836.2" y="1098.6" width="455.42" height="151.19" rx="15.38" ry="7.01"/>
  </g>
 </g>
</svg>
